RobotoAvar2-YTLC426.ufo
<glyph name="b" format="2">
  <advance width="1170"/>
  <unicode hex="0062"/>
  <anchor x="585" y="0" name="bottom"/>
  <anchor x="585" y="1456" name="top"/>
  <outline>
    <contour>
      <point x="148" y="0" type="line"/>
      <point x="148" y="1456" type="line"/>
      <point x="334" y="1456" type="line"/>
      <point x="334" y="137" type="line"/>
      <point x="324" y="137" type="line"/>
      <point x="316" y="0" type="line"/>
    </contour>
    <contour>
      <point x="605" y="132" type="qcurve" smooth="yes"/>
      <point x="747" y="132"/>
      <point x="895" y="284"/>
      <point x="895" y="410" type="qcurve" smooth="yes"/>
      <point x="895" y="442" type="line" smooth="yes"/>
      <point x="895" y="576"/>
      <point x="744" y="720"/>
      <point x="605" y="720" type="qcurve" smooth="yes"/>
      <point x="468" y="720"/>
      <point x="291" y="567"/>
      <point x="291" y="449" type="qcurve" smooth="yes"/>
      <point x="291" y="421" type="line" smooth="yes"/>
      <point x="291" y="285"/>
      <point x="468" y="132"/>
    </contour>
    <contour>
      <point x="645" y="-20" type="qcurve" smooth="yes"/>
      <point x="461" y="-20"/>
      <point x="224" y="218"/>
      <point x="224" y="420" type="qcurve" smooth="yes"/>
      <point x="224" y="454" type="line" smooth="yes"/>
      <point x="224" y="646"/>
      <point x="461" y="872"/>
      <point x="645" y="872" type="qcurve" smooth="yes"/>
      <point x="837" y="872"/>
      <point x="1085" y="640"/>
      <point x="1085" y="442" type="qcurve" smooth="yes"/>
      <point x="1085" y="410" type="line" smooth="yes"/>
      <point x="1085" y="212"/>
      <point x="837" y="-20"/>
    </contour>
  </outline>
</glyph>
<glyph name="e" format="2">
  <advance width="1088"/>
  <unicode hex="0065"/>
  <anchor x="590" y="0" name="bottom"/>
  <anchor x="771" y="0" name="ogonek"/>
  <anchor x="560" y="852" name="top"/>
  <outline>
    <contour>
      <point x="85" y="410" type="qcurve" smooth="yes"/>
      <point x="85" y="442" type="line" smooth="yes"/>
      <point x="85" y="634"/>
      <point x="343" y="882"/>
      <point x="561" y="882" type="qcurve" smooth="yes"/>
      <point x="776" y="882"/>
      <point x="1008" y="654"/>
      <point x="1008" y="460" type="qcurve" smooth="yes"/>
      <point x="1008" y="384" type="line"/>
      <point x="180" y="384" type="line"/>
      <point x="180" y="532" type="line"/>
      <point x="821" y="532" type="line"/>
      <point x="821" y="536" type="line" smooth="yes"/>
      <point x="821" y="617"/>
      <point x="701" y="730"/>
      <point x="569" y="730" type="qcurve" smooth="yes"/>
      <point x="436" y="730"/>
      <point x="275" y="578"/>
      <point x="275" y="442" type="qcurve" smooth="yes"/>
      <point x="275" y="410" type="line" smooth="yes"/>
      <point x="275" y="282"/>
      <point x="429" y="122"/>
      <point x="591" y="122" type="qcurve" smooth="yes"/>
      <point x="686" y="122"/>
      <point x="835" y="210"/>
      <point x="880" y="270" type="qcurve"/>
      <point x="1000" y="175" type="line"/>
      <point x="950" y="100"/>
      <point x="741" y="-30"/>
      <point x="591" y="-30" type="qcurve" smooth="yes"/>
      <point x="346" y="-30"/>
      <point x="85" y="218"/>
    </contour>
  </outline>
</glyph>
<glyph name="f" format="2">
  <advance width="600"/>
  <unicode hex="0066"/>
  <anchor x="300" y="0" name="bottom"/>
  <anchor x="300" y="1456" name="top"/>
  <outline>
    <contour>
      <point x="196" y="0" type="line"/>
      <point x="196" y="1020" type="line" smooth="yes"/>
      <point x="196" y="1264"/>
      <point x="386" y="1476"/>
      <point x="550" y="1476" type="qcurve" smooth="yes"/>
      <point x="582" y="1476"/>
      <point x="648" y="1468"/>
      <point x="678" y="1460" type="qcurve"/>
      <point x="668" y="1310" type="line"/>
      <point x="646" y="1314"/>
      <point x="596" y="1320"/>
      <point x="570" y="1320" type="qcurve" smooth="yes"/>
      <point x="480" y="1320"/>
      <point x="382" y="1190"/>
      <point x="382" y="1020" type="qcurve" smooth="yes"/>
      <point x="382" y="792" type="line"/>
      <point x="382" y="770" type="line"/>
      <point x="382" y="0" type="line"/>
    </contour>
    <contour>
      <point x="25" y="710" type="line"/>
      <point x="25" y="852" type="line"/>
      <point x="266" y="852" type="line"/>
      <point x="312" y="852" type="line"/>
      <point x="610" y="852" type="line"/>
      <point x="610" y="710" type="line"/>
    </contour>
  </outline>
</glyph>
<glyph name="g" format="2">
  <advance width="1170"/>
  <unicode hex="0067"/>
  <anchor x="585" y="-416" name="bottom"/>
  <anchor x="585" y="852" name="top"/>
  <outline>
    <contour>
      <point x="550" y="-436" type="qcurve" smooth="yes"/>
      <point x="420" y="-436"/>
      <point x="200" y="-350"/>
      <point x="124" y="-284" type="qcurve"/>
      <point x="241" y="-144" type="line"/>
      <point x="285" y="-195"/>
      <point x="445" y="-274"/>
      <point x="545" y="-274" type="qcurve" smooth="yes"/>
      <point x="680" y="-274"/>
      <point x="836" y="-120"/>
      <point x="836" y="20" type="qcurve" smooth="yes"/>
      <point x="836" y="715" type="line"/>
      <point x="846" y="715" type="line"/>
      <point x="854" y="852" type="line"/>
      <point x="1022" y="852" type="line"/>
      <point x="1022" y="20" type="line" smooth="yes"/>
      <point x="1022" y="-200"/>
      <point x="760" y="-436"/>
    </contour>
    <contour>
      <point x="565" y="132" type="qcurve" smooth="yes"/>
      <point x="702" y="132"/>
      <point x="879" y="285"/>
      <point x="879" y="403" type="qcurve" smooth="yes"/>
      <point x="879" y="431" type="line" smooth="yes"/>
      <point x="879" y="557"/>
      <point x="702" y="720"/>
      <point x="565" y="720" type="qcurve" smooth="yes"/>
      <point x="428" y="720"/>
      <point x="275" y="563"/>
      <point x="275" y="442" type="qcurve" smooth="yes"/>
      <point x="275" y="410" type="line" smooth="yes"/>
      <point x="275" y="289"/>
      <point x="428" y="132"/>
    </contour>
    <contour>
      <point x="525" y="-20" type="qcurve" smooth="yes"/>
      <point x="323" y="-20"/>
      <point x="85" y="222"/>
      <point x="85" y="410" type="qcurve" smooth="yes"/>
      <point x="85" y="442" type="line" smooth="yes"/>
      <point x="85" y="630"/>
      <point x="323" y="872"/>
      <point x="525" y="872" type="qcurve" smooth="yes"/>
      <point x="709" y="872"/>
      <point x="946" y="623"/>
      <point x="946" y="431" type="qcurve" smooth="yes"/>
      <point x="946" y="405" type="line" smooth="yes"/>
      <point x="946" y="220"/>
      <point x="709" y="-20"/>
    </contour>
  </outline>
</glyph>
<glyph name="h" format="2">
  <advance width="1138"/>
  <unicode hex="0068"/>
  <anchor x="569" y="0" name="bottom"/>
  <anchor x="320" y="1327" name="center"/>
  <anchor x="244" y="1536" name="top"/>
  <anchor x="907" y="0" name="engtail"/>
  <outline>
    <contour>
      <point x="334" y="0" type="line"/>
      <point x="148" y="0" type="line"/>
      <point x="148" y="1536" type="line"/>
      <point x="334" y="1536" type="line"/>
    </contour>
    <contour>
      <point x="254" y="597" type="line"/>
      <point x="321" y="748"/>
      <point x="534" y="872"/>
      <point x="664" y="872" type="qcurve" smooth="yes"/>
      <point x="811" y="872"/>
      <point x="1000" y="701"/>
      <point x="1000" y="489" type="qcurve" smooth="yes"/>
      <point x="1000" y="0" type="line"/>
      <point x="814" y="0" type="line"/>
      <point x="814" y="491" type="line" smooth="yes"/>
      <point x="814" y="617"/>
      <point x="701" y="716"/>
      <point x="597" y="716" type="qcurve" smooth="yes"/>
      <point x="490" y="716"/>
      <point x="329" y="582"/>
      <point x="254" y="389" type="qcurve"/>
    </contour>
  </outline>
</glyph>
<glyph name="k" format="2">
  <advance width="971"/>
  <unicode hex="006B"/>
  <anchor x="514" y="199" name="bottom"/>
  <anchor x="514" y="1455" name="top"/>
  <outline>
    <contour>
      <point x="148" y="0" type="line"/>
      <point x="148" y="1383" type="line"/>
      <point x="334" y="1383" type="line"/>
      <point x="334" y="0" type="line"/>
    </contour>
    <contour>
      <point x="771" y="0" type="line"/>
      <point x="416" y="470" type="line"/>
      <point x="532" y="598" type="line"/>
      <point x="987" y="0" type="line"/>
    </contour>
    <contour>
      <point x="241" y="185" type="line"/>
      <point x="241" y="403" type="line"/>
      <point x="664" y="852" type="line"/>
      <point x="875" y="852" type="line"/>
    </contour>
  </outline>
</glyph>
<glyph name="m" format="2">
  <advance width="1764"/>
  <unicode hex="006D"/>
  <anchor x="882" y="0" name="bottom"/>
  <anchor x="882" y="852" name="top"/>
  <outline>
    <contour>
      <point x="148" y="0" type="line"/>
      <point x="148" y="852" type="line"/>
      <point x="316" y="852" type="line"/>
      <point x="334" y="657" type="line"/>
      <point x="334" y="0" type="line"/>
    </contour>
    <contour>
      <point x="980" y="479" type="qcurve" smooth="yes"/>
      <point x="980" y="0" type="line"/>
      <point x="794" y="0" type="line"/>
      <point x="794" y="481" type="line" smooth="yes"/>
      <point x="794" y="607"/>
      <point x="691" y="716"/>
      <point x="587" y="716" type="qcurve" smooth="yes"/>
      <point x="496" y="716"/>
      <point x="352" y="661"/>
      <point x="241" y="447" type="qcurve"/>
      <point x="241" y="626" type="line"/>
      <point x="312" y="812"/>
      <point x="523" y="872"/>
      <point x="642" y="872" type="qcurve" smooth="yes"/>
      <point x="801" y="872"/>
      <point x="980" y="691"/>
    </contour>
    <contour>
      <point x="887" y="626" type="line"/>
      <point x="1012" y="760"/>
      <point x="1169" y="872"/>
      <point x="1288" y="872" type="qcurve" smooth="yes"/>
      <point x="1447" y="872"/>
      <point x="1626" y="691"/>
      <point x="1626" y="479" type="qcurve" smooth="yes"/>
      <point x="1626" y="0" type="line"/>
      <point x="1440" y="0" type="line"/>
      <point x="1440" y="481" type="line" smooth="yes"/>
      <point x="1440" y="607"/>
      <point x="1337" y="716"/>
      <point x="1247" y="716" type="qcurve" smooth="yes"/>
      <point x="1152" y="716"/>
      <point x="1039" y="638"/>
      <point x="887" y="447" type="qcurve"/>
    </contour>
  </outline>
</glyph>
<glyph name="n" format="2">
  <advance width="1138"/>
  <unicode hex="006E"/>
  <anchor x="569" y="0" name="bottom"/>
  <anchor x="569" y="852" name="top"/>
  <anchor x="907" y="0" name="engtail"/>
  <outline>
    <contour>
      <point x="148" y="0" type="line"/>
      <point x="148" y="852" type="line"/>
      <point x="316" y="852" type="line"/>
      <point x="334" y="630" type="line"/>
      <point x="334" y="0" type="line"/>
    </contour>
    <contour>
      <point x="241" y="367" type="qcurve"/>
      <point x="241" y="546" type="line"/>
      <point x="312" y="732"/>
      <point x="533" y="872"/>
      <point x="652" y="872" type="qcurve" smooth="yes"/>
      <point x="811" y="872"/>
      <point x="1000" y="691"/>
      <point x="1000" y="479" type="qcurve" smooth="yes"/>
      <point x="1000" y="0" type="line"/>
      <point x="814" y="0" type="line"/>
      <point x="814" y="481" type="line" smooth="yes"/>
      <point x="814" y="607"/>
      <point x="701" y="716"/>
      <point x="597" y="716" type="qcurve" smooth="yes"/>
      <point x="506" y="716"/>
      <point x="345" y="600"/>
    </contour>
  </outline>
</glyph>
<glyph name="p" format="2">
  <advance width="1170"/>
  <unicode hex="0070"/>
  <anchor x="642" y="0" name="bottom"/>
  <anchor x="642" y="852" name="top"/>
  <outline>
    <contour>
      <point x="148" y="-416" type="line"/>
      <point x="148" y="852" type="line"/>
      <point x="316" y="852" type="line"/>
      <point x="324" y="715" type="line"/>
      <point x="334" y="715" type="line"/>
      <point x="334" y="-416" type="line"/>
    </contour>
    <contour>
      <point x="605" y="132" type="qcurve" smooth="yes"/>
      <point x="732" y="132"/>
      <point x="895" y="279"/>
      <point x="895" y="410" type="qcurve" smooth="yes"/>
      <point x="895" y="442" type="line" smooth="yes"/>
      <point x="895" y="563"/>
      <point x="732" y="720"/>
      <point x="605" y="720" type="qcurve" smooth="yes"/>
      <point x="468" y="720"/>
      <point x="291" y="567"/>
      <point x="291" y="449" type="qcurve" smooth="yes"/>
      <point x="291" y="421" type="line" smooth="yes"/>
      <point x="291" y="285"/>
      <point x="468" y="132"/>
    </contour>
    <contour>
      <point x="645" y="-20" type="qcurve" smooth="yes"/>
      <point x="461" y="-20"/>
      <point x="224" y="248"/>
      <point x="224" y="420" type="qcurve" smooth="yes"/>
      <point x="224" y="454" type="line" smooth="yes"/>
      <point x="224" y="636"/>
      <point x="461" y="872"/>
      <point x="645" y="872" type="qcurve" smooth="yes"/>
      <point x="837" y="872"/>
      <point x="1085" y="630"/>
      <point x="1085" y="442" type="qcurve" smooth="yes"/>
      <point x="1085" y="410" type="line" smooth="yes"/>
      <point x="1085" y="212"/>
      <point x="837" y="-20"/>
    </contour>
  </outline>
</glyph>
<glyph name="r" format="2">
  <advance width="700"/>
  <unicode hex="0072"/>
  <anchor x="350" y="0" name="bottom"/>
  <anchor x="417" y="852" name="top"/>
  <outline>
    <contour>
      <point x="148" y="0" type="line"/>
      <point x="148" y="852" type="line"/>
      <point x="316" y="852" type="line"/>
      <point x="334" y="650" type="line"/>
      <point x="334" y="0" type="line"/>
    </contour>
    <contour>
      <point x="241" y="338" type="qcurve"/>
      <point x="241" y="526" type="line"/>
      <point x="326" y="755"/>
      <point x="496" y="882"/>
      <point x="590" y="882" type="qcurve" smooth="yes"/>
      <point x="612" y="882"/>
      <point x="660" y="872"/>
      <point x="670" y="868" type="qcurve"/>
      <point x="670" y="696" type="line"/>
      <point x="650" y="700"/>
      <point x="606" y="704"/>
      <point x="580" y="704" type="qcurve" smooth="yes"/>
      <point x="481" y="704"/>
      <point x="333" y="580"/>
    </contour>
  </outline>
</glyph>
<glyph name="s" format="2">
  <advance width="1010"/>
  <unicode hex="0073"/>
  <anchor x="505" y="0" name="bottom"/>
  <anchor x="505" y="852" name="top"/>
  <outline>
    <contour>
      <point x="80" y="290" type="line"/>
      <point x="266" y="290" type="line"/>
      <point x="266" y="285" type="line" smooth="yes"/>
      <point x="266" y="206"/>
      <point x="392" y="122"/>
      <point x="510" y="122" type="qcurve" smooth="yes"/>
      <point x="624" y="122"/>
      <point x="747" y="183"/>
      <point x="747" y="240" type="qcurve" smooth="yes"/>
      <point x="747" y="289"/>
      <point x="618" y="349"/>
      <point x="475" y="365" type="qcurve" smooth="yes"/>
      <point x="280" y="388"/>
      <point x="105" y="509"/>
      <point x="105" y="620" type="qcurve" smooth="yes"/>
      <point x="105" y="746"/>
      <point x="310" y="882"/>
      <point x="500" y="882" type="qcurve" smooth="yes"/>
      <point x="693" y="882"/>
      <point x="900" y="723"/>
      <point x="900" y="575" type="qcurve" smooth="yes"/>
      <point x="900" y="570" type="line"/>
      <point x="715" y="570" type="line"/>
      <point x="715" y="579" type="line" smooth="yes"/>
      <point x="715" y="652"/>
      <point x="604" y="730"/>
      <point x="500" y="730" type="qcurve" smooth="yes"/>
      <point x="398" y="730"/>
      <point x="289" y="678"/>
      <point x="289" y="630" type="qcurve" smooth="yes"/>
      <point x="289" y="589"/>
      <point x="424" y="537"/>
      <point x="575" y="520" type="qcurve" smooth="yes"/>
      <point x="762" y="498"/>
      <point x="930" y="370"/>
      <point x="930" y="250" type="qcurve" smooth="yes"/>
      <point x="930" y="115"/>
      <point x="712" y="-30"/>
      <point x="510" y="-30" type="qcurve" smooth="yes"/>
      <point x="303" y="-30"/>
      <point x="80" y="133"/>
      <point x="80" y="285" type="qcurve" smooth="yes"/>
    </contour>
  </outline>
</glyph>
<glyph name="v" format="2">
  <advance width="942"/>
  <unicode hex="0076"/>
  <anchor x="471" y="0" name="bottom"/>
  <anchor x="471" y="852" name="top"/>
  <outline>
    <contour>
      <point x="76" y="852" type="line"/>
      <point x="252" y="852" type="line"/>
      <point x="434" y="350" type="line" smooth="yes"/>
      <point x="448" y="310"/>
      <point x="467" y="240"/>
      <point x="471" y="220" type="qcurve"/>
      <point x="477" y="220" type="line"/>
      <point x="481" y="240"/>
      <point x="500" y="310"/>
      <point x="514" y="350" type="qcurve" smooth="yes"/>
      <point x="694" y="852" type="line"/>
      <point x="866" y="852" type="line"/>
      <point x="542" y="0" type="line"/>
      <point x="400" y="0" type="line"/>
    </contour>
  </outline>
</glyph>
<glyph name="x" format="2">
  <advance width="978"/>
  <unicode hex="0078"/>
  <anchor x="489" y="0" name="bottom"/>
  <anchor x="489" y="852" name="top"/>
  <anchor x="765" y="0" name="cy_descender"/>
  <outline>
    <contour>
      <point x="20" y="0" type="line"/>
      <point x="383" y="532" type="line"/>
      <point x="395" y="532" type="line"/>
      <point x="600" y="852" type="line"/>
      <point x="800" y="852" type="line"/>
      <point x="500" y="404" type="line"/>
      <point x="487" y="404" type="line"/>
      <point x="230" y="0" type="line"/>
    </contour>
    <contour>
      <point x="73" y="852" type="line"/>
      <point x="274" y="852" type="line"/>
      <point x="489" y="530" type="line"/>
      <point x="494" y="523" type="line"/>
      <point x="855" y="0" type="line"/>
      <point x="648" y="0" type="line"/>
      <point x="390" y="382" type="line"/>
      <point x="383" y="393" type="line"/>
    </contour>
  </outline>
</glyph>
<glyph name="y" format="2">
  <advance width="796"/>
  <unicode hex="0079"/>
  <anchor x="713" y="0" name="bottom"/>
  <anchor x="424" y="852" name="top"/>
  <outline>
    <contour>
      <point x="-25" y="-416" type="qcurve"/>
      <point x="-25" y="-258" type="line"/>
      <point x="1" y="-266"/>
      <point x="65" y="-276"/>
      <point x="95" y="-276" type="qcurve" smooth="yes"/>
      <point x="165" y="-276"/>
      <point x="269" y="-171"/>
      <point x="327" y="4" type="qcurve"/>
      <point x="327" y="5" type="line"/>
      <point x="10" y="852" type="line"/>
      <point x="187" y="852" type="line"/>
      <point x="364" y="360" type="line" smooth="yes"/>
      <point x="378" y="321"/>
      <point x="400" y="250"/>
      <point x="408" y="220" type="qcurve"/>
      <point x="414" y="220" type="line"/>
      <point x="423" y="250"/>
      <point x="446" y="321"/>
      <point x="459" y="360" type="qcurve" smooth="yes"/>
      <point x="624" y="852" type="line"/>
      <point x="796" y="852" type="line"/>
      <point x="440" y="-140" type="line" smooth="yes"/>
      <point x="390" y="-280"/>
      <point x="225" y="-436"/>
      <point x="105" y="-436" type="qcurve" smooth="yes"/>
      <point x="65" y="-436"/>
      <point x="3" y="-426"/>
    </contour>
  </outline>
</glyph>
<glyph name="z" format="2">
  <advance width="862"/>
  <unicode hex="007A"/>
  <anchor x="420" y="0" name="bottom"/>
  <anchor x="419" y="852" name="top"/>
  <outline>
    <contour>
      <point x="70" y="0" type="line"/>
      <point x="70" y="136" type="line"/>
      <point x="514" y="700" type="line"/>
      <point x="78" y="700" type="line"/>
      <point x="78" y="852" type="line"/>
      <point x="738" y="852" type="line"/>
      <point x="738" y="719" type="line"/>
      <point x="292" y="152" type="line"/>
      <point x="767" y="152" type="line"/>
      <point x="767" y="0" type="line"/>
    </contour>
  </outline>
</glyph>
<glyph name="ae" format="2">
  <advance width="1772"/>
  <unicode hex="00E6"/>
  <anchor x="900" y="852" name="top"/>
  <outline>
    <contour>
      <point x="450" y="-20" type="qcurve" smooth="yes"/>
      <point x="277" y="-20"/>
      <point x="90" y="125"/>
      <point x="90" y="260" type="qcurve" smooth="yes"/>
      <point x="90" y="387"/>
      <point x="323" y="538"/>
      <point x="540" y="538" type="qcurve" smooth="yes"/>
      <point x="868" y="538" type="line"/>
      <point x="868" y="406" type="line"/>
      <point x="560" y="406" type="line" smooth="yes"/>
      <point x="423" y="406"/>
      <point x="276" y="336"/>
      <point x="276" y="270" type="qcurve" smooth="yes"/>
      <point x="276" y="202"/>
      <point x="387" y="128"/>
      <point x="490" y="128" type="qcurve" smooth="yes"/>
      <point x="603" y="128"/>
      <point x="778" y="260"/>
      <point x="778" y="345" type="qcurve"/>
      <point x="778" y="520" type="line" smooth="yes"/>
      <point x="778" y="615"/>
      <point x="680" y="734"/>
      <point x="560" y="734" type="qcurve" smooth="yes"/>
      <point x="453" y="734"/>
      <point x="337" y="675"/>
      <point x="337" y="620" type="qcurve" smooth="yes"/>
      <point x="337" y="615" type="line"/>
      <point x="152" y="615" type="line"/>
      <point x="152" y="620" type="line" smooth="yes"/>
      <point x="152" y="734"/>
      <point x="385" y="882"/>
      <point x="565" y="882" type="qcurve" smooth="yes"/>
      <point x="692" y="882"/>
      <point x="861" y="800"/>
      <point x="900" y="719" type="qcurve"/>
      <point x="943" y="794"/>
      <point x="1119" y="882"/>
      <point x="1246" y="882" type="qcurve" smooth="yes"/>
      <point x="1461" y="882"/>
      <point x="1693" y="654"/>
      <point x="1693" y="460" type="qcurve" smooth="yes"/>
      <point x="1693" y="384" type="line"/>
      <point x="884" y="384" type="line"/>
      <point x="884" y="532" type="line"/>
      <point x="1506" y="532" type="line"/>
      <point x="1506" y="536" type="line" smooth="yes"/>
      <point x="1506" y="617"/>
      <point x="1386" y="730"/>
      <point x="1254" y="730" type="qcurve" smooth="yes"/>
      <point x="1116" y="730"/>
      <point x="960" y="568"/>
      <point x="960" y="442" type="qcurve" smooth="yes"/>
      <point x="960" y="410" type="line" smooth="yes"/>
      <point x="960" y="284"/>
      <point x="1118" y="122"/>
      <point x="1276" y="122" type="qcurve" smooth="yes"/>
      <point x="1376" y="122"/>
      <point x="1520" y="210"/>
      <point x="1565" y="270" type="qcurve"/>
      <point x="1685" y="175" type="line"/>
      <point x="1635" y="100"/>
      <point x="1426" y="-30"/>
      <point x="1276" y="-30" type="qcurve" smooth="yes"/>
      <point x="1104" y="-30"/>
      <point x="897" y="101"/>
      <point x="854" y="181" type="qcurve"/>
      <point x="786" y="72"/>
      <point x="580" y="-20"/>
    </contour>
  </outline>
</glyph>
<glyph name="eth" format="2">
  <advance width="1114"/>
  <unicode hex="00F0"/>
  <outline>
    <contour>
      <point x="214" y="1421" type="qcurve"/>
      <point x="271" y="1581" type="line"/>
      <point x="608" y="1506"/>
      <point x="1029" y="898"/>
      <point x="1029" y="523" type="qcurve"/>
      <point x="1029" y="485" type="line"/>
      <point x="1029" y="265"/>
      <point x="765" y="-20"/>
      <point x="561" y="-20" type="qcurve" smooth="yes"/>
      <point x="353" y="-20"/>
      <point x="85" y="231"/>
      <point x="85" y="422" type="qcurve" smooth="yes"/>
      <point x="85" y="624"/>
      <point x="338" y="882"/>
      <point x="533" y="882" type="qcurve" smooth="yes"/>
      <point x="702" y="882"/>
      <point x="933" y="639"/>
      <point x="933" y="504" type="qcurve"/>
      <point x="864" y="504" type="line"/>
      <point x="864" y="570"/>
      <point x="720" y="730"/>
      <point x="577" y="730" type="qcurve" smooth="yes"/>
      <point x="443" y="730"/>
      <point x="271" y="558"/>
      <point x="271" y="422" type="qcurve" smooth="yes"/>
      <point x="271" y="297"/>
      <point x="437" y="132"/>
      <point x="565" y="132" type="qcurve" smooth="yes"/>
      <point x="686" y="132"/>
      <point x="843" y="331"/>
      <point x="843" y="485" type="qcurve" smooth="yes"/>
      <point x="843" y="525" type="line" smooth="yes"/>
      <point x="843" y="874"/>
      <point x="468" y="1355"/>
    </contour>
    <contour>
      <point x="937" y="1427" type="line"/>
      <point x="400" y="1061" type="line"/>
      <point x="317" y="1181" type="line"/>
      <point x="854" y="1546" type="line"/>
    </contour>
  </outline>
</glyph>
<glyph name="kgreenlandic" format="2">
  <advance width="976"/>
  <unicode hex="0138"/>
  <outline>
    <contour>
      <point x="340" y="852" type="line"/>
      <point x="340" y="0" type="line"/>
      <point x="155" y="0" type="line"/>
      <point x="155" y="852" type="line"/>
    </contour>
    <contour>
      <point x="950" y="852" type="line"/>
      <point x="517" y="352" type="line"/>
      <point x="250" y="352" type="line"/>
      <point x="250" y="514" type="line"/>
      <point x="432" y="514" type="line"/>
      <point x="726" y="852" type="line"/>
    </contour>
    <contour>
      <point x="758" y="0" type="line"/>
      <point x="423" y="380" type="line"/>
      <point x="542" y="514" type="line"/>
      <point x="992" y="0" type="line"/>
    </contour>
  </outline>
</glyph>
<glyph name="oe" format="2">
  <advance width="1889"/>
  <unicode hex="0153"/>
  <outline>
    <contour>
      <point x="581" y="-30" type="qcurve" smooth="yes"/>
      <point x="355" y="-30"/>
      <point x="85" y="208"/>
      <point x="85" y="410" type="qcurve" smooth="yes"/>
      <point x="85" y="442" type="line" smooth="yes"/>
      <point x="85" y="644"/>
      <point x="355" y="882"/>
      <point x="581" y="882" type="qcurve" smooth="yes"/>
      <point x="755" y="882"/>
      <point x="957" y="802"/>
      <point x="977" y="728" type="qcurve"/>
      <point x="997" y="795"/>
      <point x="1211" y="882"/>
      <point x="1371" y="882" type="qcurve" smooth="yes"/>
      <point x="1578" y="882"/>
      <point x="1810" y="654"/>
      <point x="1810" y="460" type="qcurve" smooth="yes"/>
      <point x="1810" y="384" type="line"/>
      <point x="982" y="384" type="line"/>
      <point x="982" y="532" type="line"/>
      <point x="1623" y="532" type="line"/>
      <point x="1623" y="536" type="line" smooth="yes"/>
      <point x="1623" y="617"/>
      <point x="1503" y="730"/>
      <point x="1371" y="730" type="qcurve" smooth="yes"/>
      <point x="1238" y="730"/>
      <point x="1077" y="568"/>
      <point x="1077" y="442" type="qcurve" smooth="yes"/>
      <point x="1077" y="410" type="line" smooth="yes"/>
      <point x="1077" y="294"/>
      <point x="1231" y="122"/>
      <point x="1393" y="122" type="qcurve" smooth="yes"/>
      <point x="1488" y="122"/>
      <point x="1637" y="210"/>
      <point x="1682" y="270" type="qcurve"/>
      <point x="1802" y="175" type="line"/>
      <point x="1752" y="100"/>
      <point x="1543" y="-30"/>
      <point x="1393" y="-30" type="qcurve" smooth="yes"/>
      <point x="1216" y="-30"/>
      <point x="1009" y="57"/>
      <point x="979" y="133" type="qcurve"/>
      <point x="950" y="51"/>
      <point x="746" y="-30"/>
    </contour>
    <contour>
      <point x="581" y="122" type="qcurve" smooth="yes"/>
      <point x="733" y="122"/>
      <point x="887" y="271"/>
      <point x="887" y="410" type="qcurve" smooth="yes"/>
      <point x="887" y="442" type="line" smooth="yes"/>
      <point x="887" y="581"/>
      <point x="733" y="730"/>
      <point x="581" y="730" type="qcurve" smooth="yes"/>
      <point x="428" y="730"/>
      <point x="275" y="581"/>
      <point x="275" y="442" type="qcurve" smooth="yes"/>
      <point x="275" y="410" type="line" smooth="yes"/>
      <point x="275" y="271"/>
      <point x="428" y="122"/>
    </contour>
  </outline>
</glyph>
<glyph name="schwa" format="2">
  <advance width="1088"/>
  <unicode hex="0259"/>
  <outline>
    <contour>
      <point x="1004" y="442" type="qcurve" smooth="yes"/>
      <point x="1004" y="410" type="line" smooth="yes"/>
      <point x="1004" y="218"/>
      <point x="746" y="-30"/>
      <point x="528" y="-30" type="qcurve" smooth="yes"/>
      <point x="313" y="-30"/>
      <point x="81" y="198"/>
      <point x="81" y="392" type="qcurve" smooth="yes"/>
      <point x="81" y="468" type="line"/>
      <point x="909" y="468" type="line"/>
      <point x="909" y="320" type="line"/>
      <point x="268" y="320" type="line"/>
      <point x="268" y="316" type="line" smooth="yes"/>
      <point x="268" y="235"/>
      <point x="388" y="122"/>
      <point x="520" y="122" type="qcurve" smooth="yes"/>
      <point x="653" y="122"/>
      <point x="814" y="274"/>
      <point x="814" y="410" type="qcurve" smooth="yes"/>
      <point x="814" y="442" type="line" smooth="yes"/>
      <point x="814" y="570"/>
      <point x="660" y="730"/>
      <point x="498" y="730" type="qcurve" smooth="yes"/>
      <point x="403" y="730"/>
      <point x="254" y="642"/>
      <point x="209" y="582" type="qcurve"/>
      <point x="89" y="677" type="line"/>
      <point x="139" y="752"/>
      <point x="348" y="882"/>
      <point x="498" y="882" type="qcurve" smooth="yes"/>
      <point x="743" y="882"/>
      <point x="1004" y="634"/>
    </contour>
  </outline>
</glyph>
<glyph name="beta" format="2">
  <advance width="1190"/>
  <unicode hex="03B2"/>
  <outline>
    <contour>
      <point x="148" y="-416" type="line"/>
      <point x="148" y="1058" type="line" smooth="yes"/>
      <point x="148" y="1311"/>
      <point x="397" y="1556"/>
      <point x="595" y="1556" type="qcurve" smooth="yes"/>
      <point x="798" y="1556"/>
      <point x="1014" y="1350"/>
      <point x="1014" y="1155" type="qcurve"/>
      <point x="1014" y="1026"/>
      <point x="874" y="803"/>
      <point x="770" y="778" type="qcurve"/>
      <point x="770" y="794" type="line"/>
      <point x="923" y="774"/>
      <point x="1105" y="574"/>
      <point x="1105" y="407" type="qcurve" smooth="yes"/>
      <point x="1105" y="187"/>
      <point x="835" y="-21"/>
      <point x="646" y="-21" type="qcurve" smooth="yes"/>
      <point x="498" y="-21"/>
      <point x="295" y="147"/>
      <point x="238" y="254" type="qcurve"/>
      <point x="238" y="491" type="line"/>
      <point x="310" y="309"/>
      <point x="488" y="132"/>
      <point x="633" y="132" type="qcurve" smooth="yes"/>
      <point x="768" y="132"/>
      <point x="916" y="260"/>
      <point x="916" y="406" type="qcurve" smooth="yes"/>
      <point x="916" y="554"/>
      <point x="763" y="711"/>
      <point x="570" y="709" type="qcurve" smooth="yes"/>
      <point x="472" y="709" type="line"/>
      <point x="472" y="851" type="line"/>
      <point x="571" y="851" type="line" smooth="yes"/>
      <point x="713" y="851"/>
      <point x="839" y="1037"/>
      <point x="839" y="1156" type="qcurve" smooth="yes"/>
      <point x="839" y="1269"/>
      <point x="729" y="1404"/>
      <point x="595" y="1404" type="qcurve" smooth="yes"/>
      <point x="462" y="1404"/>
      <point x="334" y="1236"/>
      <point x="334" y="1065" type="qcurve" smooth="yes"/>
      <point x="334" y="-416" type="line"/>
    </contour>
  </outline>
</glyph>
<glyph name="gamma" format="2">
  <advance width="790"/>
  <unicode hex="03B3"/>
  <outline>
    <contour>
      <point x="302" y="-366" type="line"/>
      <point x="302" y="58" type="line"/>
      <point x="0" y="852" type="line"/>
      <point x="180" y="852" type="line"/>
      <point x="358" y="350" type="line" smooth="yes"/>
      <point x="372" y="310"/>
      <point x="391" y="240"/>
      <point x="395" y="220" type="qcurve"/>
      <point x="401" y="220" type="line"/>
      <point x="405" y="240"/>
      <point x="424" y="310"/>
      <point x="438" y="350" type="qcurve" smooth="yes"/>
      <point x="614" y="852" type="line"/>
      <point x="790" y="852" type="line"/>
      <point x="488" y="58" type="line"/>
      <point x="488" y="-366" type="line"/>
    </contour>
  </outline>
</glyph>
<glyph name="delta" format="2">
  <advance width="1142"/>
  <unicode hex="03B4"/>
  <outline>
    <contour>
      <point x="561" y="-30" type="qcurve" smooth="yes"/>
      <point x="337" y="-30"/>
      <point x="85" y="206"/>
      <point x="85" y="389" type="qcurve" smooth="yes"/>
      <point x="85" y="419" type="line" smooth="yes"/>
      <point x="85" y="609"/>
      <point x="349" y="860"/>
      <point x="563" y="878" type="qcurve"/>
      <point x="706" y="804" type="line"/>
      <point x="494" y="796"/>
      <point x="274" y="600"/>
      <point x="274" y="442" type="qcurve" smooth="yes"/>
      <point x="274" y="422" type="line" smooth="yes"/>
      <point x="274" y="281"/>
      <point x="415" y="122"/>
      <point x="562" y="122" type="qcurve" smooth="yes"/>
      <point x="705" y="122"/>
      <point x="868" y="296"/>
      <point x="868" y="432" type="qcurve" smooth="yes"/>
      <point x="868" y="451" type="line" smooth="yes"/>
      <point x="868" y="569"/>
      <point x="755" y="723"/>
      <point x="584" y="800" type="qcurve" smooth="yes"/>
      <point x="421" y="872"/>
      <point x="270" y="1026"/>
      <point x="270" y="1165" type="qcurve" smooth="yes"/>
      <point x="270" y="1305"/>
      <point x="481" y="1476"/>
      <point x="673" y="1476" type="qcurve" smooth="yes"/>
      <point x="773" y="1476"/>
      <point x="918" y="1438"/>
      <point x="979" y="1407" type="qcurve"/>
      <point x="948" y="1253" type="line"/>
      <point x="862" y="1294"/>
      <point x="729" y="1324"/>
      <point x="673" y="1324" type="qcurve" smooth="yes"/>
      <point x="565" y="1324"/>
      <point x="454" y="1234"/>
      <point x="454" y="1171" type="qcurve" smooth="yes"/>
      <point x="454" y="1098"/>
      <point x="521" y="1010"/>
      <point x="671" y="927" type="qcurve" smooth="yes"/>
      <point x="905" y="797"/>
      <point x="1057" y="595"/>
      <point x="1057" y="445" type="qcurve" smooth="yes"/>
      <point x="1057" y="416" type="line" smooth="yes"/>
      <point x="1057" y="212"/>
      <point x="773" y="-30"/>
    </contour>
  </outline>
</glyph>
<glyph name="eta" format="2">
  <advance width="1138"/>
  <unicode hex="03B7"/>
  <anchor x="569" y="0" name="bottom"/>
  <anchor x="595" y="852" name="top"/>
  <outline>
    <contour>
      <point x="148" y="0" type="line"/>
      <point x="148" y="852" type="line"/>
      <point x="316" y="852" type="line"/>
      <point x="334" y="544" type="line"/>
      <point x="334" y="0" type="line"/>
    </contour>
    <contour>
      <point x="241" y="367" type="qcurve"/>
      <point x="241" y="546" type="line"/>
      <point x="312" y="732"/>
      <point x="533" y="882"/>
      <point x="652" y="882" type="qcurve" smooth="yes"/>
      <point x="811" y="882"/>
      <point x="1000" y="691"/>
      <point x="1000" y="479" type="qcurve" smooth="yes"/>
      <point x="1000" y="-416" type="line"/>
      <point x="814" y="-416" type="line"/>
      <point x="814" y="481" type="line" smooth="yes"/>
      <point x="814" y="607"/>
      <point x="701" y="726"/>
      <point x="597" y="726" type="qcurve" smooth="yes"/>
      <point x="506" y="726"/>
      <point x="345" y="600"/>
    </contour>
  </outline>
</glyph>
<glyph name="kappa" format="2">
  <advance width="976"/>
  <unicode hex="03BA"/>
  <outline>
    <contour>
      <point x="763" y="0" type="line"/>
      <point x="411" y="377" type="line"/>
      <point x="525" y="503" type="line"/>
      <point x="991" y="0" type="line"/>
    </contour>
    <contour>
      <point x="241" y="510" type="line"/>
      <point x="420" y="510" type="line"/>
      <point x="738" y="852" type="line"/>
      <point x="956" y="852" type="line"/>
      <point x="508" y="365" type="line"/>
      <point x="241" y="365" type="line"/>
    </contour>
    <contour>
      <point x="334" y="852" type="line"/>
      <point x="334" y="0" type="line"/>
      <point x="148" y="0" type="line"/>
      <point x="148" y="852" type="line"/>
    </contour>
  </outline>
</glyph>
<glyph name="lambda" format="2">
  <advance width="961"/>
  <unicode hex="03BB"/>
  <outline>
    <contour>
      <point x="0" y="0" type="line"/>
      <point x="420" y="1000" type="line"/>
      <point x="381" y="1110" type="line" smooth="yes"/>
      <point x="322" y="1276"/>
      <point x="237" y="1396"/>
      <point x="159" y="1396" type="qcurve" smooth="yes"/>
      <point x="133" y="1396"/>
      <point x="66" y="1389"/>
      <point x="40" y="1381" type="qcurve"/>
      <point x="40" y="1536" type="line"/>
      <point x="68" y="1546"/>
      <point x="137" y="1556"/>
      <point x="172" y="1556" type="qcurve" smooth="yes"/>
      <point x="296" y="1556"/>
      <point x="443" y="1414"/>
      <point x="502" y="1252" type="qcurve" smooth="yes"/>
      <point x="961" y="0" type="line"/>
      <point x="761" y="0" type="line"/>
      <point x="539" y="607" type="line" smooth="yes"/>
      <point x="519" y="663"/>
      <point x="503" y="727"/>
      <point x="491" y="778" type="qcurve"/>
      <point x="485" y="778" type="line"/>
      <point x="474" y="729"/>
      <point x="452" y="649"/>
      <point x="436" y="607" type="qcurve" smooth="yes"/>
      <point x="200" y="0" type="line"/>
    </contour>
  </outline>
</glyph>
<glyph name="rho" format="2">
  <advance width="1170"/>
  <unicode hex="03C1"/>
  <outline>
    <contour>
      <point x="148" y="-416" type="line"/>
      <point x="148" y="441" type="line" smooth="yes"/>
      <point x="148" y="633"/>
      <point x="401" y="882"/>
      <point x="615" y="882" type="qcurve" smooth="yes"/>
      <point x="830" y="882"/>
      <point x="1085" y="640"/>
      <point x="1085" y="452" type="qcurve" smooth="yes"/>
      <point x="1085" y="420" type="line" smooth="yes"/>
      <point x="1085" y="228"/>
      <point x="847" y="-20"/>
      <point x="645" y="-20" type="qcurve" smooth="yes"/>
      <point x="507" y="-20"/>
      <point x="327" y="106"/>
      <point x="242" y="263" type="qcurve"/>
      <point x="242" y="511" type="line"/>
      <point x="309" y="317"/>
      <point x="480" y="132"/>
      <point x="605" y="132" type="qcurve" smooth="yes"/>
      <point x="742" y="132"/>
      <point x="895" y="294"/>
      <point x="895" y="420" type="qcurve" smooth="yes"/>
      <point x="895" y="452" type="line" smooth="yes"/>
      <point x="895" y="573"/>
      <point x="747" y="730"/>
      <point x="615" y="730" type="qcurve" smooth="yes"/>
      <point x="482" y="730"/>
      <point x="334" y="570"/>
      <point x="334" y="446" type="qcurve" smooth="yes"/>
      <point x="334" y="-416" type="line"/>
    </contour>
  </outline>
</glyph>
<glyph name="phi" format="2">
  <advance width="1448"/>
  <unicode hex="03C6"/>
  <outline>
    <contour>
      <point x="631" y="-416" type="line"/>
      <point x="631" y="45" type="line"/>
      <point x="631" y="89" type="line"/>
      <point x="631" y="781" type="line"/>
      <point x="631" y="822" type="line"/>
      <point x="631" y="1456" type="line"/>
      <point x="817" y="1456" type="line"/>
      <point x="817" y="822" type="line"/>
      <point x="817" y="779" type="line"/>
      <point x="817" y="85" type="line"/>
      <point x="817" y="45" type="line"/>
      <point x="817" y="-416" type="line"/>
    </contour>
    <contour>
      <point x="631" y="-30" type="line"/>
      <point x="368" y="-20"/>
      <point x="85" y="208"/>
      <point x="85" y="410" type="qcurve" smooth="yes"/>
      <point x="85" y="442" type="line" smooth="yes"/>
      <point x="85" y="644"/>
      <point x="368" y="872"/>
      <point x="631" y="882" type="qcurve"/>
      <point x="817" y="882" type="line"/>
      <point x="1080" y="872"/>
      <point x="1363" y="644"/>
      <point x="1363" y="442" type="qcurve" smooth="yes"/>
      <point x="1363" y="410" type="line" smooth="yes"/>
      <point x="1363" y="208"/>
      <point x="1080" y="-20"/>
      <point x="817" y="-30" type="qcurve"/>
    </contour>
    <contour>
      <point x="631" y="122" type="qcurve"/>
      <point x="817" y="122" type="line"/>
      <point x="989" y="131"/>
      <point x="1173" y="280"/>
      <point x="1173" y="410" type="qcurve" smooth="yes"/>
      <point x="1173" y="442" type="line" smooth="yes"/>
      <point x="1173" y="572"/>
      <point x="989" y="721"/>
      <point x="817" y="730" type="qcurve"/>
      <point x="631" y="730" type="line"/>
      <point x="459" y="721"/>
      <point x="275" y="572"/>
      <point x="275" y="442" type="qcurve" smooth="yes"/>
      <point x="275" y="410" type="line" smooth="yes"/>
      <point x="275" y="280"/>
      <point x="459" y="131"/>
    </contour>
  </outline>
</glyph>
<glyph name="kaisymbol" format="2">
  <advance width="1043"/>
  <unicode hex="03D7"/>
  <outline>
    <contour>
      <point x="148" y="0" type="line"/>
      <point x="148" y="852" type="line"/>
      <point x="334" y="852" type="line"/>
      <point x="334" y="0" type="line"/>
    </contour>
    <contour>
      <point x="254" y="365" type="line"/>
      <point x="254" y="510" type="line"/>
      <point x="440" y="510" type="line"/>
      <point x="805" y="852" type="line"/>
      <point x="1023" y="852" type="line"/>
      <point x="578" y="445" type="line"/>
      <point x="1048" y="13" type="line"/>
      <point x="349" y="-590" type="line"/>
      <point x="231" y="-454" type="line"/>
      <point x="805" y="28" type="line"/>
      <point x="442" y="365" type="line"/>
    </contour>
  </outline>
</glyph>
<glyph name="be" format="2">
  <advance width="1172"/>
  <unicode hex="0431"/>
  <outline>
    <contour>
      <point x="285" y="442" type="qcurve" smooth="yes"/>
      <point x="285" y="410" type="line" smooth="yes"/>
      <point x="285" y="287"/>
      <point x="438" y="122"/>
      <point x="591" y="122" type="qcurve" smooth="yes"/>
      <point x="742" y="122"/>
      <point x="897" y="284"/>
      <point x="897" y="410" type="qcurve" smooth="yes"/>
      <point x="897" y="442" type="line" smooth="yes"/>
      <point x="897" y="568"/>
      <point x="743" y="730"/>
      <point x="591" y="730" type="qcurve" smooth="yes"/>
      <point x="439" y="730"/>
      <point x="285" y="568"/>
    </contour>
    <contour>
      <point x="637" y="882" type="qcurve" smooth="yes"/>
      <point x="846" y="882"/>
      <point x="1087" y="634"/>
      <point x="1087" y="442" type="qcurve" smooth="yes"/>
      <point x="1087" y="410" type="line" smooth="yes"/>
      <point x="1087" y="218"/>
      <point x="817" y="-30"/>
      <point x="591" y="-30" type="qcurve" smooth="yes"/>
      <point x="357" y="-30"/>
      <point x="95" y="278"/>
      <point x="95" y="525" type="qcurve" smooth="yes"/>
      <point x="95" y="551" type="line" smooth="yes"/>
      <point x="95" y="919"/>
      <point x="338" y="1317"/>
      <point x="667" y="1367" type="qcurve" smooth="yes"/>
      <point x="839" y="1394"/>
      <point x="893" y="1432"/>
      <point x="897" y="1456" type="qcurve"/>
      <point x="1061" y="1456" type="line"/>
      <point x="1050" y="1351"/>
      <point x="903" y="1228"/>
      <point x="688" y="1199" type="qcurve" smooth="yes"/>
      <point x="433" y="1166"/>
      <point x="254" y="914"/>
      <point x="237" y="701" type="qcurve"/>
      <point x="248" y="701" type="line"/>
      <point x="284" y="780"/>
      <point x="500" y="882"/>
    </contour>
  </outline>
</glyph>
<glyph name="ze" format="2">
  <advance width="1095"/>
  <unicode hex="0437"/>
  <anchor x="556" y="-1" name="bottom"/>
  <outline>
    <contour>
      <point x="537" y="-30" type="qcurve" smooth="yes"/>
      <point x="307" y="-30"/>
      <point x="89" y="134"/>
      <point x="89" y="287" type="qcurve" smooth="yes"/>
      <point x="89" y="292" type="line"/>
      <point x="269" y="292" type="line"/>
      <point x="269" y="287" type="line" smooth="yes"/>
      <point x="269" y="207"/>
      <point x="387" y="122"/>
      <point x="538" y="122" type="qcurve" smooth="yes"/>
      <point x="662" y="122"/>
      <point x="798" y="193"/>
      <point x="798" y="250" type="qcurve" smooth="yes"/>
      <point x="798" y="304"/>
      <point x="704" y="363"/>
      <point x="602" y="363" type="qcurve" smooth="yes"/>
      <point x="417" y="363" type="line"/>
      <point x="417" y="507" type="line"/>
      <point x="572" y="507" type="line" smooth="yes"/>
      <point x="675" y="507"/>
      <point x="765" y="556"/>
      <point x="765" y="611" type="qcurve" smooth="yes"/>
      <point x="765" y="668"/>
      <point x="652" y="730"/>
      <point x="550" y="730" type="qcurve" smooth="yes"/>
      <point x="420" y="730"/>
      <point x="289" y="645"/>
      <point x="289" y="565" type="qcurve" smooth="yes"/>
      <point x="289" y="560" type="line"/>
      <point x="109" y="560" type="line"/>
      <point x="109" y="565" type="line" smooth="yes"/>
      <point x="109" y="718"/>
      <point x="340" y="882"/>
      <point x="550" y="882" type="qcurve" smooth="yes"/>
      <point x="750" y="882"/>
      <point x="953" y="746"/>
      <point x="953" y="626" type="qcurve" smooth="yes"/>
      <point x="953" y="536"/>
      <point x="821" y="453"/>
      <point x="754" y="441" type="qcurve"/>
      <point x="754" y="438" type="line"/>
      <point x="845" y="425"/>
      <point x="985" y="326"/>
      <point x="985" y="249" type="qcurve" smooth="yes"/>
      <point x="985" y="95"/>
      <point x="730" y="-30"/>
    </contour>
  </outline>
</glyph>
<glyph name="icyr" format="2">
  <advance width="1158"/>
  <unicode hex="0438"/>
  <anchor x="588" y="852" name="top"/>
  <outline>
    <contour>
      <point x="148" y="0" type="line"/>
      <point x="148" y="852" type="line"/>
      <point x="331" y="852" type="line"/>
      <point x="331" y="353" type="line" smooth="yes"/>
      <point x="331" y="323"/>
      <point x="330" y="248"/>
      <point x="329" y="218" type="qcurve"/>
      <point x="339" y="218" type="line"/>
      <point x="353" y="243"/>
      <point x="385" y="306"/>
      <point x="407" y="333" type="qcurve" smooth="yes"/>
      <point x="824" y="852" type="line"/>
      <point x="1010" y="852" type="line"/>
      <point x="1010" y="0" type="line"/>
      <point x="827" y="0" type="line"/>
      <point x="827" y="498" type="line" smooth="yes"/>
      <point x="827" y="528"/>
      <point x="830" y="608"/>
      <point x="832" y="638" type="qcurve"/>
      <point x="817" y="638" type="line"/>
      <point x="805" y="613"/>
      <point x="773" y="546"/>
      <point x="751" y="518" type="qcurve" smooth="yes"/>
      <point x="334" y="0" type="line"/>
    </contour>
  </outline>
</glyph>
<glyph name="ka" format="2">
  <advance width="1043"/>
  <unicode hex="043A"/>
  <guideline x="241" y="553" angle="90" identifier="lmgRx0QBdK"/>
  <anchor x="588" y="852" name="top"/>
  <anchor x="837" y="0" name="cy_descender"/>
  <outline>
    <contour>
      <point x="830" y="0" type="line"/>
      <point x="411" y="377" type="line"/>
      <point x="525" y="503" type="line"/>
      <point x="1058" y="0" type="line"/>
    </contour>
    <contour>
      <point x="241" y="510" type="line"/>
      <point x="420" y="510" type="line"/>
      <point x="805" y="852" type="line"/>
      <point x="1023" y="852" type="line"/>
      <point x="508" y="365" type="line"/>
      <point x="241" y="365" type="line"/>
    </contour>
    <contour>
      <point x="334" y="852" type="line"/>
      <point x="334" y="0" type="line"/>
      <point x="148" y="0" type="line"/>
      <point x="148" y="852" type="line"/>
    </contour>
  </outline>
</glyph>
<glyph name="em" format="2">
  <advance width="1506"/>
  <unicode hex="043C"/>
  <outline>
    <contour>
      <point x="148" y="0" type="line"/>
      <point x="148" y="852" type="line"/>
      <point x="402" y="852" type="line"/>
      <point x="695" y="327" type="line" smooth="yes"/>
      <point x="723" y="276"/>
      <point x="742" y="224"/>
      <point x="750" y="200" type="qcurve"/>
      <point x="760" y="200" type="line"/>
      <point x="768" y="224"/>
      <point x="787" y="276"/>
      <point x="814" y="325" type="qcurve" smooth="yes"/>
      <point x="1109" y="852" type="line"/>
      <point x="1358" y="852" type="line"/>
      <point x="1358" y="0" type="line"/>
      <point x="1181" y="0" type="line"/>
      <point x="1181" y="516" type="line" smooth="yes"/>
      <point x="1181" y="575"/>
      <point x="1184" y="626"/>
      <point x="1186" y="646" type="qcurve"/>
      <point x="1177" y="646" type="line"/>
      <point x="1170" y="626"/>
      <point x="1145" y="566"/>
      <point x="1119" y="519" type="qcurve" smooth="yes"/>
      <point x="830" y="0" type="line"/>
      <point x="670" y="0" type="line"/>
      <point x="380" y="522" type="line" smooth="yes"/>
      <point x="359" y="560"/>
      <point x="332" y="626"/>
      <point x="324" y="646" type="qcurve"/>
      <point x="314" y="646" type="line"/>
      <point x="316" y="626"/>
      <point x="319" y="576"/>
      <point x="319" y="523" type="qcurve" smooth="yes"/>
      <point x="319" y="0" type="line"/>
    </contour>
  </outline>
</glyph>
<glyph name="soft" format="2">
  <advance width="1048"/>
  <unicode hex="044C"/>
  <outline>
    <contour>
      <point x="148" y="0" type="line"/>
      <point x="148" y="852" type="line"/>
      <point x="334" y="852" type="line"/>
      <point x="334" y="145" type="line"/>
      <point x="576" y="145" type="line" smooth="yes"/>
      <point x="701" y="145"/>
      <point x="802" y="229"/>
      <point x="802" y="308" type="qcurve" smooth="yes"/>
      <point x="802" y="388"/>
      <point x="701" y="467"/>
      <point x="576" y="467" type="qcurve" smooth="yes"/>
      <point x="244" y="467" type="line"/>
      <point x="244" y="612" type="line"/>
      <point x="576" y="612" type="line" smooth="yes"/>
      <point x="775" y="612"/>
      <point x="988" y="459"/>
      <point x="988" y="308" type="qcurve" smooth="yes"/>
      <point x="988" y="160"/>
      <point x="775" y="0"/>
      <point x="576" y="0" type="qcurve" smooth="yes"/>
    </contour>
  </outline>
</glyph>
<glyph name="ecyr" format="2">
  <advance width="1068"/>
  <unicode hex="044D"/>
  <guideline x="889" y="493" angle="90" identifier="9ss4WcbEUf"/>
  <anchor x="507" y="852" name="top"/>
  <outline>
    <contour>
      <point x="983" y="410" type="line" smooth="yes"/>
      <point x="983" y="198"/>
      <point x="724" y="-30"/>
      <point x="507" y="-30" type="qcurve" smooth="yes"/>
      <point x="291" y="-30"/>
      <point x="69" y="134"/>
      <point x="69" y="287" type="qcurve" smooth="yes"/>
      <point x="69" y="292" type="line"/>
      <point x="249" y="292" type="line"/>
      <point x="249" y="287" type="line" smooth="yes"/>
      <point x="249" y="195"/>
      <point x="372" y="122"/>
      <point x="507" y="122" type="qcurve" smooth="yes"/>
      <point x="648" y="122"/>
      <point x="799" y="278"/>
      <point x="799" y="400" type="qcurve" smooth="yes"/>
      <point x="799" y="464" type="line" smooth="yes"/>
      <point x="799" y="585"/>
      <point x="646" y="730"/>
      <point x="511" y="730" type="qcurve" smooth="yes"/>
      <point x="376" y="730"/>
      <point x="253" y="645"/>
      <point x="253" y="565" type="qcurve" smooth="yes"/>
      <point x="253" y="560" type="line"/>
      <point x="73" y="560" type="line"/>
      <point x="73" y="565" type="line" smooth="yes"/>
      <point x="73" y="708"/>
      <point x="296" y="882"/>
      <point x="511" y="882" type="qcurve" smooth="yes"/>
      <point x="726" y="882"/>
      <point x="983" y="665"/>
      <point x="983" y="442" type="qcurve" smooth="yes"/>
    </contour>
    <contour>
      <point x="889" y="510" type="line"/>
      <point x="889" y="365" type="line"/>
      <point x="358" y="365" type="line"/>
      <point x="358" y="510" type="line"/>
    </contour>
  </outline>
</glyph>
<glyph name="ieukran" format="2">
  <advance width="1068"/>
  <unicode hex="0454"/>
  <guideline x="180" y="548" angle="90" identifier="n4jm0tBg3Y"/>
  <outline>
    <contour>
      <point x="85" y="410" type="qcurve" smooth="yes"/>
      <point x="85" y="442" type="line" smooth="yes"/>
      <point x="85" y="655"/>
      <point x="344" y="882"/>
      <point x="571" y="882" type="qcurve" smooth="yes"/>
      <point x="781" y="882"/>
      <point x="999" y="698"/>
      <point x="999" y="555" type="qcurve" smooth="yes"/>
      <point x="999" y="550" type="line"/>
      <point x="819" y="550" type="line"/>
      <point x="819" y="555" type="line" smooth="yes"/>
      <point x="819" y="635"/>
      <point x="701" y="730"/>
      <point x="571" y="730" type="qcurve" smooth="yes"/>
      <point x="421" y="730"/>
      <point x="269" y="580"/>
      <point x="269" y="464" type="qcurve" smooth="yes"/>
      <point x="269" y="400" type="line" smooth="yes"/>
      <point x="269" y="279"/>
      <point x="420" y="122"/>
      <point x="571" y="122" type="qcurve" smooth="yes"/>
      <point x="701" y="122"/>
      <point x="819" y="219"/>
      <point x="819" y="307" type="qcurve" smooth="yes"/>
      <point x="819" y="312" type="line"/>
      <point x="999" y="312" type="line"/>
      <point x="999" y="307" type="line" smooth="yes"/>
      <point x="999" y="160"/>
      <point x="781" y="-30"/>
      <point x="571" y="-30" type="qcurve" smooth="yes"/>
      <point x="344" y="-30"/>
      <point x="85" y="205"/>
    </contour>
    <contour>
      <point x="181" y="510" type="line"/>
      <point x="710" y="510" type="line"/>
      <point x="710" y="365" type="line"/>
      <point x="181" y="365" type="line"/>
    </contour>
  </outline>
</glyph>
<glyph name="nje" format="2">
  <advance width="1701"/>
  <unicode hex="045A"/>
  <outline>
    <contour>
      <point x="148" y="0" type="line"/>
      <point x="148" y="852" type="line"/>
      <point x="334" y="852" type="line"/>
      <point x="334" y="0" type="line"/>
    </contour>
    <contour>
      <point x="244" y="425" type="line"/>
      <point x="244" y="570" type="line"/>
      <point x="891" y="570" type="line"/>
      <point x="891" y="425" type="line"/>
    </contour>
    <contour>
      <point x="801" y="0" type="line"/>
      <point x="801" y="852" type="line"/>
      <point x="987" y="852" type="line"/>
      <point x="987" y="145" type="line"/>
      <point x="1249" y="145" type="line" smooth="yes"/>
      <point x="1358" y="145"/>
      <point x="1455" y="212"/>
      <point x="1455" y="287" type="qcurve" smooth="yes"/>
      <point x="1455" y="360"/>
      <point x="1358" y="425"/>
      <point x="1249" y="425" type="qcurve" smooth="yes"/>
      <point x="917" y="425" type="line"/>
      <point x="917" y="570" type="line"/>
      <point x="1249" y="570" type="line" smooth="yes"/>
      <point x="1438" y="570"/>
      <point x="1641" y="423"/>
      <point x="1641" y="287" type="qcurve" smooth="yes"/>
      <point x="1641" y="149"/>
      <point x="1438" y="0"/>
      <point x="1249" y="0" type="qcurve" smooth="yes"/>
    </contour>
  </outline>
</glyph>
<glyph name="ustraight" format="2">
  <advance width="942"/>
  <unicode hex="04AF"/>
  <outline>
    <contour>
      <point x="378" y="-416" type="line"/>
      <point x="378" y="0" type="line"/>
      <point x="0" y="852" type="line"/>
      <point x="180" y="852" type="line"/>
      <point x="419" y="289" type="line" smooth="yes"/>
      <point x="435" y="251"/>
      <point x="463" y="179"/>
      <point x="471" y="159" type="qcurve"/>
      <point x="477" y="159" type="line"/>
      <point x="484" y="179"/>
      <point x="512" y="250"/>
      <point x="529" y="289" type="qcurve" smooth="yes"/>
      <point x="766" y="852" type="line"/>
      <point x="942" y="852" type="line"/>
      <point x="564" y="0" type="line"/>
      <point x="564" y="-416" type="line"/>
    </contour>
  </outline>
</glyph>
<glyph name="cheverticalstroke-cy" format="2">
  <advance width="1115"/>
  <unicode hex="04B9"/>
  <outline>
    <contour>
      <point x="631" y="752" type="line"/>
      <point x="631" y="100" type="line"/>
      <point x="466" y="100" type="line"/>
      <point x="466" y="752" type="line"/>
    </contour>
    <contour>
      <point x="311" y="673" type="line" smooth="yes"/>
      <point x="311" y="542"/>
      <point x="410" y="442"/>
      <point x="533" y="442" type="qcurve" smooth="yes"/>
      <point x="622" y="442"/>
      <point x="766" y="468"/>
      <point x="854" y="490" type="qcurve"/>
      <point x="854" y="344" type="line"/>
      <point x="769" y="325"/>
      <point x="621" y="296"/>
      <point x="497" y="296" type="qcurve" smooth="yes"/>
      <point x="301" y="296"/>
      <point x="125" y="483"/>
      <point x="125" y="673" type="qcurve" smooth="yes"/>
      <point x="125" y="852" type="line"/>
      <point x="311" y="852" type="line"/>
    </contour>
    <contour>
      <point x="781" y="0" type="line"/>
      <point x="781" y="852" type="line"/>
      <point x="967" y="852" type="line"/>
      <point x="967" y="0" type="line"/>
    </contour>
  </outline>
</glyph>
<glyph name="be.locl" format="2">
  <advance width="1162"/>
  <outline>
    <contour>
      <point x="275" y="422" type="qcurve" smooth="yes"/>
      <point x="275" y="390" type="line" smooth="yes"/>
      <point x="275" y="273"/>
      <point x="447" y="122"/>
      <point x="581" y="122" type="qcurve" smooth="yes"/>
      <point x="715" y="122"/>
      <point x="887" y="273"/>
      <point x="887" y="390" type="qcurve" smooth="yes"/>
      <point x="887" y="422" type="line" smooth="yes"/>
      <point x="887" y="539"/>
      <point x="715" y="690"/>
      <point x="581" y="690" type="qcurve" smooth="yes"/>
      <point x="447" y="690"/>
      <point x="275" y="539"/>
    </contour>
    <contour>
      <point x="85" y="390" type="qcurve" smooth="yes"/>
      <point x="85" y="422" type="line" smooth="yes"/>
      <point x="85" y="530"/>
      <point x="260" y="726"/>
      <point x="396" y="769" type="qcurve"/>
      <point x="396" y="773" type="line"/>
      <point x="286" y="828"/>
      <point x="145" y="1024"/>
      <point x="145" y="1121" type="qcurve" smooth="yes"/>
      <point x="145" y="1280"/>
      <point x="377" y="1485"/>
      <point x="556" y="1485" type="qcurve" smooth="yes"/>
      <point x="653" y="1485" type="line" smooth="yes"/>
      <point x="738" y="1485"/>
      <point x="856" y="1514"/>
      <point x="862" y="1536" type="qcurve"/>
      <point x="1025" y="1536" type="line"/>
      <point x="1015" y="1440"/>
      <point x="812" y="1316"/>
      <point x="665" y="1316" type="qcurve" smooth="yes"/>
      <point x="568" y="1316" type="line" smooth="yes"/>
      <point x="461" y="1316"/>
      <point x="322" y="1197"/>
      <point x="322" y="1105" type="qcurve" smooth="yes"/>
      <point x="322" y="1014"/>
      <point x="512" y="863"/>
      <point x="659" y="838" type="qcurve" smooth="yes"/>
      <point x="841" y="807"/>
      <point x="1077" y="573"/>
      <point x="1077" y="422" type="qcurve" smooth="yes"/>
      <point x="1077" y="390" type="line" smooth="yes"/>
      <point x="1077" y="207"/>
      <point x="797" y="-30"/>
      <point x="581" y="-30" type="qcurve" smooth="yes"/>
      <point x="365" y="-30"/>
      <point x="85" y="207"/>
    </contour>
  </outline>
</glyph>
<glyph name="diagonalbaro" format="2">
  <advance width="512"/>
  <outline>
    <contour>
      <point x="-88" y="2" type="line"/>
      <point x="-4" y="209" type="line"/>
      <point x="14" y="204" type="line"/>
      <point x="215" y="604" type="line"/>
      <point x="314" y="534" type="line"/>
      <point x="131" y="175" type="line"/>
      <point x="151" y="171" type="line"/>
      <point x="77" y="-3" type="line"/>
    </contour>
    <contour>
      <point x="418" y="1064" type="line"/>
      <point x="589" y="1061" type="line"/>
      <point x="511" y="868" type="line"/>
      <point x="490" y="873" type="line"/>
      <point x="314" y="534" type="line"/>
      <point x="215" y="604" type="line"/>
      <point x="374" y="901" type="line"/>
      <point x="354" y="907" type="line"/>
    </contour>
  </outline>
</glyph>
<glyph name="el.bgr" format="2">
  <advance width="942"/>
  <outline>
    <contour>
      <point x="942" y="0" type="line"/>
      <point x="762" y="0" type="line"/>
      <point x="508" y="502" type="line" smooth="yes"/>
      <point x="492" y="534"/>
      <point x="474" y="612"/>
      <point x="471" y="632" type="qcurve"/>
      <point x="465" y="632" type="line"/>
      <point x="462" y="612"/>
      <point x="443" y="534"/>
      <point x="427" y="502" type="qcurve" smooth="yes"/>
      <point x="176" y="0" type="line"/>
      <point x="0" y="0" type="line"/>
      <point x="400" y="852" type="line"/>
      <point x="542" y="852" type="line"/>
    </contour>
  </outline>
</glyph>
<glyph name="sha.bgr" format="2">
  <advance width="1764"/>
  <anchor x="1533" y="0" name="cy_descender"/>
  <outline>
    <contour>
      <point x="1626" y="852" type="line"/>
      <point x="1626" y="0" type="line"/>
      <point x="1458" y="0" type="line"/>
      <point x="1440" y="195" type="line"/>
      <point x="1440" y="852" type="line"/>
    </contour>
    <contour>
      <point x="794" y="373" type="qcurve" smooth="yes"/>
      <point x="794" y="852" type="line"/>
      <point x="980" y="852" type="line"/>
      <point x="980" y="371" type="line" smooth="yes"/>
      <point x="980" y="245"/>
      <point x="1083" y="136"/>
      <point x="1187" y="136" type="qcurve" smooth="yes"/>
      <point x="1278" y="136"/>
      <point x="1429" y="252"/>
      <point x="1533" y="485" type="qcurve"/>
      <point x="1533" y="306" type="line"/>
      <point x="1462" y="120"/>
      <point x="1251" y="-20"/>
      <point x="1132" y="-20" type="qcurve" smooth="yes"/>
      <point x="973" y="-20"/>
      <point x="797" y="161"/>
    </contour>
    <contour>
      <point x="887" y="306" type="line"/>
      <point x="816" y="120"/>
      <point x="605" y="-20"/>
      <point x="486" y="-20" type="qcurve" smooth="yes"/>
      <point x="327" y="-20"/>
      <point x="151" y="161"/>
      <point x="148" y="373" type="qcurve" smooth="yes"/>
      <point x="148" y="852" type="line"/>
      <point x="334" y="852" type="line"/>
      <point x="334" y="371" type="line" smooth="yes"/>
      <point x="334" y="245"/>
      <point x="437" y="136"/>
      <point x="541" y="136" type="qcurve" smooth="yes"/>
      <point x="632" y="136"/>
      <point x="783" y="252"/>
      <point x="887" y="485" type="qcurve"/>
    </contour>
  </outline>
</glyph>
<glyph name="yu-dash" format="2">
  <advance width="396"/>
  <anchor x="0" y="439" name="_yu_dash"/>
  <anchor x="396" y="439" name="yu_dash"/>
  <outline>
    <contour>
      <point x="0" y="365" type="line"/>
      <point x="0" y="510" type="line"/>
      <point x="396" y="510" type="line"/>
      <point x="396" y="365" type="line"/>
    </contour>
  </outline>
</glyph>
<glyph name="ze.bgr" format="2">
  <advance width="992"/>
  <outline>
    <contour>
      <point x="25" y="-20" type="qcurve" smooth="yes"/>
      <point x="25" y="-10" type="line"/>
      <point x="205" y="-10" type="line"/>
      <point x="205" y="-20" type="line" smooth="yes"/>
      <point x="205" y="-132"/>
      <point x="345" y="-276"/>
      <point x="471" y="-276" type="qcurve" smooth="yes"/>
      <point x="587" y="-276"/>
      <point x="736" y="-143"/>
      <point x="736" y="-40" type="qcurve"/>
      <point x="736" y="67"/>
      <point x="589" y="182"/>
      <point x="452" y="182" type="qcurve" smooth="yes"/>
      <point x="344" y="182" type="line"/>
      <point x="344" y="336" type="line"/>
      <point x="443" y="336" type="line" smooth="yes"/>
      <point x="549" y="336"/>
      <point x="686" y="451"/>
      <point x="686" y="550" type="qcurve"/>
      <point x="686" y="629"/>
      <point x="565" y="732"/>
      <point x="471" y="732" type="qcurve" smooth="yes"/>
      <point x="372" y="732"/>
      <point x="245" y="613"/>
      <point x="245" y="520" type="qcurve" smooth="yes"/>
      <point x="245" y="510" type="line"/>
      <point x="65" y="510" type="line"/>
      <point x="65" y="520" type="line" smooth="yes"/>
      <point x="65" y="680"/>
      <point x="294" y="886"/>
      <point x="471" y="886" type="qcurve" smooth="yes"/>
      <point x="645" y="886"/>
      <point x="870" y="702"/>
      <point x="870" y="560" type="qcurve"/>
      <point x="870" y="467"/>
      <point x="747" y="307"/>
      <point x="652" y="266" type="qcurve"/>
      <point x="652" y="262" type="line"/>
      <point x="782" y="233"/>
      <point x="922" y="77"/>
      <point x="922" y="-39" type="qcurve"/>
      <point x="922" y="-210"/>
      <point x="668" y="-430"/>
      <point x="471" y="-430" type="qcurve" smooth="yes"/>
      <point x="266" y="-430"/>
      <point x="25" y="-199"/>
    </contour>
  </outline>
</glyph>
<glyph name="zhe.bgr" format="2">
  <advance width="1530"/>
  <outline>
    <contour>
      <point x="57" y="0" type="line"/>
      <point x="476" y="572" type="line"/>
      <point x="588" y="444" type="line"/>
      <point x="270" y="0" type="line"/>
    </contour>
    <contour>
      <point x="670" y="0" type="line"/>
      <point x="670" y="1456" type="line"/>
      <point x="856" y="1456" type="line"/>
      <point x="856" y="0" type="line"/>
    </contour>
    <contour>
      <point x="1255" y="0" type="line"/>
      <point x="937" y="444" type="line"/>
      <point x="1049" y="572" type="line"/>
      <point x="1468" y="0" type="line"/>
    </contour>
    <contour>
      <point x="120" y="852" type="line"/>
      <point x="329" y="852" type="line"/>
      <point x="755" y="374" type="line"/>
      <point x="755" y="158" type="line"/>
    </contour>
    <contour>
      <point x="1405" y="852" type="line"/>
      <point x="770" y="158" type="line"/>
      <point x="770" y="374" type="line"/>
      <point x="1196" y="852" type="line"/>
    </contour>
  </outline>
</glyph>
